<?xml version="1.0" encoding="UTF-8"?>
<svg id="Layer_2" data-name="Layer 2" xmlns="http://www.w3.org/2000/svg" viewBox="0 0 308.16 52.58">
  <defs>
    <style>
      .cls-1 {
        fill: #44693d;
      }

      .cls-2 {
        fill: #002e5d;
      }

      .cls-3 {
        fill: #1a1a1a;
      }

      .cls-4 {
        fill: #98c2d8;
      }
    </style>
  </defs>
  <g id="Layer_1-2" data-name="Layer 1">
    <g>
      <path class="cls-4" d="M19.06,7.08l5.14,2.97v5.94l-5.14-2.97v-5.94M14.98,0v15.38s13.32,7.69,13.32,7.69V7.69L14.98,0h0Z"/>
      <path class="cls-1" d="M13.32,23.22l5.14,2.97-5.14,2.97-5.14-2.97,5.14-2.97M13.32,18.5L0,26.19l13.32,7.69,13.32-7.69-13.32-7.69h0Z"/>
      <path class="cls-1" d="M46.8,23.22l5.14,2.97-5.14,2.97-5.14-2.97,5.14-2.97M46.8,18.5l-13.32,7.69,13.32,7.69,13.32-7.69-13.32-7.69h0Z"/>
      <path class="cls-2" d="M36.15,36.6l5.14,2.97v5.94l-5.14-2.97v-5.94M32.07,29.52v15.38s13.32,7.69,13.32,7.69v-15.38l-13.32-7.69h0Z"/>
      <path class="cls-4" d="M41.24,7.18v5.8s-5.03,2.9-5.03,2.9v-5.8l5.03-2.9M45.32.1l-13.2,7.62v15.24l13.2-7.62V.1h0Z"/>
      <path class="cls-2" d="M24.2,36.6v5.94s-5.14,2.97-5.14,2.97v-5.94l5.14-2.97M28.29,29.52l-13.32,7.69v15.38l13.32-7.69v-15.38h0Z"/>
    </g>
    <g>
      <path class="cls-3" d="M93.01,6.7v6.9h-12.49v8.68h11.71v6.64h-11.71v17.19h-8V6.7h20.49Z"/>
      <path class="cls-3" d="M98.13,6.7h14.16c6.32,0,11.5,4.29,11.5,11.13s-3.81,10.24-8.88,11.6l12.54,16.67h-10.14l-10.66-16.04c-.21,0-.37,0-.52-.05v16.1h-8V6.7ZM108.06,24.68c4.65,0,7.37-1.83,7.37-6.27,0-3.4-2.3-5.23-5.85-5.23h-3.45v11.45c.57.05,1.25.05,1.93.05Z"/>
      <path class="cls-3" d="M126.88,26.56c0-12.02,9.25-20.54,21.17-20.54s21.01,8.1,21.01,20.38-9.15,20.38-20.96,20.38c-12.49,0-21.22-8.52-21.22-20.22ZM160.59,26.61c0-7.79-5.54-12.96-12.54-12.96-7.63,0-12.7,5.8-12.7,13.06s5.12,12.6,12.75,12.6c7.11,0,12.49-5.91,12.49-12.7Z"/>
      <path class="cls-3" d="M185.52,12.97c-3.14,0-4.86,1.93-4.86,4.23,0,2.67,1.57,3.61,7.26,5.38,5.75,1.72,10.14,4.6,10.14,10.71,0,8.36-6.01,13.48-13.8,13.48-4.91,0-9.98-1.99-13.22-5.43l4.6-6.17c2.61,2.72,5.28,4.13,8.47,4.13s5.44-1.88,5.44-4.96-2.4-4.18-7.06-5.54c-6.53-1.83-10.35-4.76-10.35-10.87,0-6.69,4.86-11.92,12.96-11.92,3.92,0,8.36,1.46,11.29,4.6l-3.92,5.8c-2.04-2.25-4.44-3.45-6.95-3.45Z"/>
      <path class="cls-3" d="M207.58,13.6h-8.62v-6.9h25.19v6.9h-8.57v32.51h-8V13.6Z"/>
    </g>
    <g>
      <path class="cls-3" d="M234.34,5.71h3.55v37.32h10.65v3.23h-14.2V5.71Z"/>
      <path class="cls-3" d="M250.68,33.78c0-7.85,5.32-13.17,12.37-13.17,4.09,0,7.74,1.94,9.46,5h.11v-4.46h3.39v25.11h-3.39v-4.52h-.11c-1.77,3.07-5.54,5.05-9.68,5.05-7.26,0-12.15-5.54-12.15-13.01ZM273,33.56c0-6.13-4.19-9.89-9.52-9.89s-9.36,3.93-9.36,9.95,3.82,10.11,9.19,10.11c5.7,0,9.68-4.36,9.68-10.16Z"/>
      <path class="cls-3" d="M283.05,46.25V1.62h3.44v24.2h.05c1.88-3.17,5.48-5.22,9.79-5.22,6.99,0,11.83,5.11,11.83,12.91s-5.11,13.28-12.15,13.28c-3.98,0-7.8-2.1-9.46-5.11h-.05v4.57h-3.44ZM295.69,43.72c5.22,0,8.98-4.03,8.98-10s-3.39-10.06-8.87-10.06c-5.75,0-9.62,4.19-9.62,10.11,0,5.59,4.14,9.95,9.52,9.95Z"/>
    </g>
  </g>
</svg>