<?xml version="1.0" encoding="UTF-8"?>
<svg id="Layer_2" data-name="Layer 2" xmlns="http://www.w3.org/2000/svg" viewBox="0 0 453.62 94.65">
  <defs>
    <style>
      .cls-1 {
        fill: #44693d;
      }

      .cls-2 {
        fill: #002e5d;
      }

      .cls-3 {
        fill: #1a1a1a;
      }

      .cls-4 {
        fill: #98c2d8;
      }

      .cls-5 {
        fill: gray;
      }
    </style>
  </defs>
  <g id="Layer_1-2" data-name="Layer 1">
    <g>
      <path class="cls-4" d="M28.76,16.03l8.64,4.99v9.98l-8.64-4.99v-9.98M22.9,5.88v23.52s20.36,11.76,20.36,11.76v-23.52S22.9,5.88,22.9,5.88h0Z"/>
      <path class="cls-1" d="M20.36,40.94l8.64,4.99-8.64,4.99-8.64-4.99,8.64-4.99M20.36,34.17L0,45.93l20.36,11.76,20.36-11.76-20.36-11.76h0Z"/>
      <path class="cls-1" d="M71.58,40.94l8.64,4.99-8.64,4.99-8.64-4.99,8.64-4.99M71.58,34.17l-20.36,11.76,20.36,11.76,20.36-11.76-20.36-11.76h0Z"/>
      <path class="cls-2" d="M54.91,61.17l8.64,4.99v9.98l-8.64-4.99v-9.98M49.04,51.02v23.52l20.36,11.76v-23.52l-20.36-11.76h0Z"/>
      <path class="cls-4" d="M63.46,16.18v9.78l-8.47,4.89v-9.78l8.47-4.89M69.32,6.03l-20.19,11.66v23.31l20.19-11.66V6.03h0Z"/>
      <path class="cls-2" d="M37.41,61.17v9.98l-8.64,4.99v-9.98l8.64-4.99M43.27,51.02l-20.36,11.76v23.52l20.36-11.76v-23.52h0Z"/>
    </g>
    <g>
      <g>
        <path class="cls-3" d="M133.36,5.66v7.7h-13.94v9.68h13.07v7.41h-13.07v19.19h-8.93V5.66h22.87Z"/>
        <path class="cls-3" d="M139.08,5.66h15.81c7.06,0,12.83,4.78,12.83,12.43s-4.26,11.43-9.92,12.95l14,18.61h-11.32l-11.9-17.91c-.23,0-.41,0-.58-.06v17.97h-8.93V5.66ZM150.16,25.73c5.19,0,8.23-2.04,8.23-7,0-3.79-2.57-5.83-6.53-5.83h-3.85v12.78c.64.06,1.4.06,2.16.06Z"/>
        <path class="cls-3" d="M171.16,27.83c0-13.42,10.33-22.92,23.63-22.92s23.45,9.04,23.45,22.75-10.21,22.75-23.39,22.75c-13.94,0-23.68-9.51-23.68-22.58ZM208.79,27.89c0-8.69-6.18-14.47-14-14.47-8.52,0-14.18,6.47-14.18,14.58s5.72,14.06,14.23,14.06c7.93,0,13.94-6.59,13.94-14.18Z"/>
        <path class="cls-3" d="M236.62,12.66c-3.5,0-5.43,2.16-5.43,4.73,0,2.97,1.75,4.03,8.11,6.01,6.42,1.92,11.32,5.13,11.32,11.96,0,9.33-6.71,15.05-15.4,15.05-5.48,0-11.14-2.22-14.76-6.07l5.13-6.88c2.92,3.03,5.89,4.61,9.45,4.61s6.07-2.1,6.07-5.54-2.68-4.67-7.88-6.18c-7.29-2.04-11.55-5.31-11.55-12.13,0-7.47,5.42-13.3,14.47-13.3,4.38,0,9.33,1.63,12.6,5.13l-4.38,6.48c-2.27-2.51-4.96-3.85-7.76-3.85Z"/>
        <path class="cls-3" d="M261.24,13.36h-9.63v-7.7h28.12v7.7h-9.57v36.28h-8.93V13.36Z"/>
      </g>
      <g>
        <path class="cls-3" d="M292.11,4.56h3.96v41.65h11.88v3.6h-15.84V4.56Z"/>
        <path class="cls-3" d="M310.36,35.89c0-8.76,5.94-14.7,13.8-14.7,4.56,0,8.64,2.16,10.56,5.58h.12v-4.98h3.78v28.03h-3.78v-5.04h-.12c-1.98,3.42-6.18,5.64-10.8,5.64-8.1,0-13.56-6.18-13.56-14.52ZM335.26,35.65c0-6.84-4.68-11.04-10.62-11.04s-10.44,4.38-10.44,11.1,4.26,11.28,10.26,11.28c6.36,0,10.8-4.86,10.8-11.34Z"/>
        <path class="cls-3" d="M346.48,49.81V0h3.84v27.01h.06c2.1-3.54,6.12-5.82,10.92-5.82,7.8,0,13.2,5.7,13.2,14.4s-5.7,14.82-13.56,14.82c-4.44,0-8.7-2.34-10.56-5.7h-.06v5.1h-3.84ZM360.59,46.99c5.82,0,10.02-4.5,10.02-11.16s-3.78-11.22-9.9-11.22c-6.42,0-10.74,4.68-10.74,11.28,0,6.24,4.62,11.1,10.62,11.1Z"/>
      </g>
    </g>
    <g>
      <path class="cls-5" d="M121.15,60.72v2.01h-8.5v8.67h8.33v1.97h-8.33v12.58h-2.21v-25.23h10.71Z"/>
      <path class="cls-5" d="M124.53,64.64c0-.94.6-1.54,1.51-1.54s1.54.6,1.54,1.54-.6,1.54-1.54,1.54-1.51-.6-1.51-1.54ZM127.14,70.32v15.69h-2.14v-15.69h2.14Z"/>
      <path class="cls-5" d="M138.52,86.29c-4.72,0-7.76-3.31-7.76-8.1s3.21-8.2,7.73-8.2,7.43,3.31,7.43,8.5h-13.02c.1,3.68,2.48,5.92,5.66,5.92,2.31,0,3.92-1.17,5.29-3.38l1.64,1.04c-1.41,2.64-4.05,4.22-6.96,4.22ZM143.67,76.72c-.4-3.08-2.41-4.89-5.29-4.89s-4.92,1.87-5.39,4.89h10.67Z"/>
      <path class="cls-5" d="M151.2,58.18v27.77h-2.11v-27.77h2.11Z"/>
      <path class="cls-5" d="M154.58,78.19c0-4.85,3.31-8.2,7.76-8.2,2.61,0,4.82,1.17,5.99,3.21h.03v-15.02h2.14v27.77h-2.14v-2.78h-.03c-1.17,1.94-3.48,3.11-6.06,3.11-4.65,0-7.7-3.25-7.7-8.1ZM168.54,78.05c0-3.55-2.51-6.16-5.96-6.16s-5.86,2.58-5.86,6.22,2.28,6.26,5.79,6.26,6.02-2.48,6.02-6.32Z"/>
      <path class="cls-5" d="M182.79,60.72h5.82c3.28,0,6.66,1.84,6.66,6.49s-2.91,6.52-6.69,6.93l8.5,11.81h-2.74l-8.23-11.75c-.37,0-.77-.03-1.1-.03v11.78h-2.21v-25.23ZM186.67,72.47c3.51,0,6.29-1.34,6.29-5.25,0-2.95-2.11-4.55-4.79-4.55h-3.18v9.77c.5.03,1.1.03,1.67.03Z"/>
      <path class="cls-5" d="M197.82,78.02c0-4.68,3.58-8.03,8.4-8.03s8.1,3.25,8.1,7.96-3.55,8.33-8.3,8.33-8.2-3.28-8.2-8.27ZM212.17,78.02c0-3.58-2.48-6.09-6.06-6.09s-6.16,2.41-6.16,6.22,2.71,6.22,6.12,6.22,6.09-2.58,6.09-6.36Z"/>
      <path class="cls-5" d="M217.66,85.95v-27.77h2.14v15.06h.03c1.17-1.97,3.41-3.25,6.09-3.25,4.35,0,7.36,3.18,7.36,8.03s-3.18,8.27-7.56,8.27c-2.48,0-4.85-1.3-5.89-3.18h-.03v2.84h-2.14ZM225.53,84.38c3.25,0,5.59-2.51,5.59-6.22s-2.11-6.26-5.52-6.26c-3.58,0-5.99,2.61-5.99,6.29,0,3.48,2.58,6.19,5.92,6.19Z"/>
      <path class="cls-5" d="M235.4,78.02c0-4.68,3.58-8.03,8.4-8.03s8.1,3.25,8.1,7.96-3.55,8.33-8.3,8.33-8.2-3.28-8.2-8.27ZM249.75,78.02c0-3.58-2.48-6.09-6.06-6.09s-6.16,2.41-6.16,6.22,2.71,6.22,6.12,6.22,6.09-2.58,6.09-6.36Z"/>
      <path class="cls-5" d="M257.45,65.07v5.25h2.91v1.87h-2.91v13.75h-2.11v-13.75h-1.71v-1.87h1.71v-5.25h2.11Z"/>
      <path class="cls-5" d="M262.94,64.64c0-.94.6-1.54,1.51-1.54s1.54.6,1.54,1.54-.6,1.54-1.54,1.54-1.51-.6-1.51-1.54ZM265.55,70.32v15.69h-2.14v-15.69h2.14Z"/>
      <path class="cls-5" d="M277.46,71.9c-3.25,0-6.12,2.38-6.12,6.29,0,3.68,2.68,6.19,6.22,6.19,1.71,0,3.65-.77,4.85-1.97h.1v2.14c-1.17.97-3.25,1.74-5.15,1.74-4.85,0-8.2-3.31-8.2-8.06s3.71-8.23,8.17-8.23c1.84,0,3.58.54,5.15,1.64v2.21l-.1.03c-1.27-1.2-3.08-1.97-4.92-1.97Z"/>
      <path class="cls-5" d="M299.28,62.29c-3.04,0-4.58,2.21-4.58,4.42,0,2.68,1.94,3.78,5.66,5.22,2.61.94,6.52,2.51,6.52,6.76,0,5.19-4.15,7.7-7.8,7.7s-6.26-1.81-7.56-4.55l1.81-1.27c1.3,2.61,3.31,3.75,5.86,3.75s5.32-1.97,5.32-5.35c0-3.15-2.64-4.22-5.75-5.39-3.45-1.24-6.39-2.74-6.39-6.83,0-3.04,2.28-6.46,6.96-6.46,2.11,0,4.65.94,6.19,3.51l-1.57,1.31c-1.41-2.04-2.78-2.81-4.65-2.81Z"/>
      <path class="cls-5" d="M315.04,85.99l-7.36-15.66h2.44l5.99,13.25h.1l5.76-13.25h2.34l-10.91,24.33h-2.38l4.02-8.67Z"/>
      <path class="cls-5" d="M324.28,82.54l1.61-1.04c.67,1.81,1.87,2.91,3.98,2.91,1.87,0,3.21-1.14,3.21-2.98,0-1.51-.84-2.31-3.08-2.98-3.25-.97-4.28-2.28-4.28-4.38,0-2.34,1.91-4.08,4.55-4.08,1.84,0,3.45.94,4.28,2.38l-1.27,1.24c-.87-1.27-1.87-1.81-3.04-1.81-1.3,0-2.41.74-2.41,2.11s.77,2.01,3.04,2.78c2.98.97,4.25,2.24,4.25,4.52,0,2.98-2.18,5.09-5.25,5.09-2.91,0-4.85-1.57-5.59-3.75Z"/>
      <path class="cls-5" d="M340.78,65.07v5.25h2.91v1.87h-2.91v13.75h-2.11v-13.75h-1.71v-1.87h1.71v-5.25h2.11Z"/>
      <path class="cls-5" d="M352.56,86.29c-4.72,0-7.76-3.31-7.76-8.1s3.21-8.2,7.73-8.2,7.43,3.31,7.43,8.5h-13.02c.1,3.68,2.48,5.92,5.65,5.92,2.31,0,3.92-1.17,5.29-3.38l1.64,1.04c-1.41,2.64-4.05,4.22-6.96,4.22ZM357.71,76.72c-.4-3.08-2.41-4.89-5.29-4.89s-4.92,1.87-5.39,4.89h10.67Z"/>
      <path class="cls-5" d="M362.97,70.32h2.11v2.21h.07c.6-1.31,2.01-2.54,4.15-2.54s3.48,1.17,4.18,2.68c1-1.84,2.71-2.68,4.65-2.68,3.11,0,4.92,2.21,4.92,5.22v10.74h-2.14v-10.24c0-2.68-1.27-3.85-3.35-3.85-2.38,0-3.58,1.47-3.58,3.75v10.34h-2.11v-10.24c0-2.28-.84-3.85-3.15-3.85s-3.65,1.87-3.65,4.32v9.77h-2.11v-15.63Z"/>
      <path class="cls-5" d="M385.69,82.54l1.61-1.04c.67,1.81,1.87,2.91,3.98,2.91,1.87,0,3.21-1.14,3.21-2.98,0-1.51-.84-2.31-3.08-2.98-3.25-.97-4.28-2.28-4.28-4.38,0-2.34,1.91-4.08,4.55-4.08,1.84,0,3.45.94,4.28,2.38l-1.27,1.24c-.87-1.27-1.87-1.81-3.04-1.81-1.31,0-2.41.74-2.41,2.11s.77,2.01,3.04,2.78c2.98.97,4.25,2.24,4.25,4.52,0,2.98-2.18,5.09-5.25,5.09-2.91,0-4.85-1.57-5.59-3.75Z"/>
      <path class="cls-5" d="M407.68,60.72h2.21v23.22h6.63v2.01h-8.83v-25.23Z"/>
      <path class="cls-5" d="M417.85,78.19c0-4.89,3.31-8.2,7.7-8.2,2.54,0,4.82,1.2,5.89,3.11h.07v-2.78h2.11v15.63h-2.11v-2.81h-.07c-1.1,1.91-3.45,3.15-6.02,3.15-4.52,0-7.56-3.45-7.56-8.1ZM431.74,78.05c0-3.82-2.61-6.16-5.92-6.16s-5.82,2.44-5.82,6.19,2.38,6.29,5.72,6.29c3.55,0,6.02-2.71,6.02-6.32Z"/>
      <path class="cls-5" d="M437.99,85.95v-27.77h2.14v15.06h.03c1.17-1.97,3.41-3.25,6.09-3.25,4.35,0,7.36,3.18,7.36,8.03s-3.18,8.27-7.56,8.27c-2.48,0-4.85-1.3-5.89-3.18h-.03v2.84h-2.14ZM445.86,84.38c3.25,0,5.59-2.51,5.59-6.22s-2.11-6.26-5.52-6.26c-3.58,0-5.99,2.61-5.99,6.29,0,3.48,2.58,6.19,5.92,6.19Z"/>
    </g>
  </g>
</svg>