<svg xmlns="http://www.w3.org/2000/svg" version="1.1" xmlns:xlink="http://www.w3.org/1999/xlink" width="1000" height="1000"><g clip-path="url(#SvgjsClipPath1036)"><rect width="1000" height="1000" fill="#002e5d"></rect><g transform="matrix(2.579694121982679,0,0,2.579694121982679,157.7132854247282,150)"><svg xmlns="http://www.w3.org/2000/svg" version="1.1" xmlns:xlink="http://www.w3.org/1999/xlink" width="265.37" height="271.35"><svg id="Layer_1_copy" data-name="Layer 1 copy" xmlns="http://www.w3.org/2000/svg" viewBox="0 0 265.37 271.35"><defs><style>.cls-1{fill:#fff;}</style><clipPath id="SvgjsClipPath1036"><rect width="1000" height="1000" x="0" y="0" rx="250" ry="250"></rect></clipPath></defs><g id="BYU_Block_Y_Navy" data-name="BYU Block Y Navy"><polygon class="cls-1" points="146.25 44.38 146.25 75.02 157.29 75.02 133.12 122.04 108.95 75.02 119.99 75.02 119.99 44.38 54.34 44.38 54.34 75.49 66.98 75.49 111.12 155.63 111.12 206.97 97.31 206.97 97.31 237.94 168.94 237.94 168.94 206.97 155.13 206.97 155.13 155.63 199.26 75.49 211.9 75.49 211.9 44.38 146.25 44.38"></polygon><polygon class="cls-1" points="175 233.03 176.91 233.03 176.91 237.94 178.07 237.94 178.07 233.03 179.95 233.03 179.95 232.06 175 232.06 175 233.03"></polygon><path class="cls-1" d="M185.34,232.06l-1,2.89c-.13.43-.27.94-.42,1.47h0c-.15-.6-.28-1-.42-1.49l-1-2.87h-1.77l-.43,5.88h1.14l.2-3.47c0-.53.05-1.09.05-1.64h.06c.14.53.32,1.23.42,1.67l1.06,3.36h1.21l1.06-3.26c.18-.54.34-1.24.48-1.77h.08c0,.63,0,1.2.06,1.64l.2,3.47h1.18l-.47-5.88Z"></path></g></svg></svg></g></g></svg>